<svg xmlns="http://www.w3.org/2000/svg" viewBox="0 0 100 100">
  <defs>
    <linearGradient id="grad" x1="0%" y1="0%" x2="100%" y2="100%">
      <stop offset="0%" style="stop-color:#10b981;stop-opacity:1" />
      <stop offset="100%" style="stop-color:#059669;stop-opacity:1" />
    </linearGradient>
  </defs>
  <rect width="100" height="100" rx="20" fill="url(#grad)"/>
  <g fill="white">
    <!-- QR code pattern -->
    <rect x="20" y="20" width="25" height="25" rx="3"/>
    <rect x="55" y="20" width="25" height="25" rx="3"/>
    <rect x="20" y="55" width="25" height="25" rx="3"/>
    <rect x="27" y="27" width="11" height="11" rx="2" fill="#10b981"/>
    <rect x="62" y="27" width="11" height="11" rx="2" fill="#10b981"/>
    <rect x="27" y="62" width="11" height="11" rx="2" fill="#10b981"/>
    <rect x="55" y="55" width="8" height="8" rx="1"/>
    <rect x="67" y="55" width="8" height="8" rx="1"/>
    <rect x="79" y="55" width="8" height="8" rx="1"/>
    <rect x="55" y="67" width="8" height="8" rx="1"/>
    <rect x="67" y="67" width="8" height="8" rx="1"/>
    <rect x="79" y="67" width="8" height="8" rx="1"/>
  </g>
</svg>
